<?xml version="1.0" standalone="no"?>
<!DOCTYPE svg PUBLIC "-//W3C//DTD SVG 20010904//EN"
 "http://www.w3.org/TR/2001/REC-SVG-20010904/DTD/svg10.dtd">
<svg version="1.0" xmlns="http://www.w3.org/2000/svg"
 width="310.000000pt" height="310.000000pt" viewBox="0 0 310.000000 310.000000"
 preserveAspectRatio="xMidYMid meet">
<metadata>
Created by potrace 1.11, written by Peter Selinger 2001-2013
</metadata>
<g transform="translate(0.000000,310.000000) scale(0.100000,-0.100000)"
fill="#000000" stroke="none">
<path d="M1430 2730 c-47 -5 -130 -20 -185 -35 -111 -29 -322 -125 -332 -150
-4 -12 33 -56 138 -161 79 -79 149 -144 154 -144 6 0 29 9 51 19 81 39 164 55
294 55 130 0 213 -16 294 -55 22 -10 45 -19 51 -19 5 0 75 65 154 144 100 100
142 149 138 160 -8 20 -166 99 -260 130 -156 51 -336 71 -497 56z"/>
<path d="M542 2178 c-20 -26 -91 -177 -112 -239 -44 -129 -61 -237 -61 -375 0
-202 38 -371 122 -539 69 -139 47 -142 220 31 l151 151 -20 39 c-44 87 -56
153 -56 294 0 141 15 222 55 304 10 22 19 45 19 51 0 14 -282 295 -296 295 -7
0 -16 -6 -22 -12z"/>
<path d="M2383 2048 c-79 -79 -143 -148 -143 -154 0 -6 9 -28 19 -50 40 -82
55 -163 55 -304 0 -141 -12 -207 -56 -294 l-20 -39 151 -151 c173 -173 151
-170 220 -31 84 168 122 337 122 539 0 140 -13 223 -57 361 -31 97 -113 259
-134 263 -8 1 -79 -62 -157 -140z"/>
<path d="M1055 710 c-171 -172 -169 -150 -30 -219 329 -163 721 -163 1050 0
139 69 142 47 -31 220 l-151 151 -39 -20 c-88 -44 -152 -56 -304 -56 -151 0
-216 12 -302 55 -21 11 -39 19 -40 19 -2 0 -71 -67 -153 -150z"/>
</g>
</svg>
